<svg xmlns="http://www.w3.org/2000/svg" xmlns:xlink="http://www.w3.org/1999/xlink" viewBox="0,0,256,256" width="50px" height="50px"><g fill="#d4cece" fill-rule="nonzero" stroke="none" stroke-width="1" stroke-linecap="butt" stroke-linejoin="miter" stroke-miterlimit="10" stroke-dasharray="" stroke-dashoffset="0" font-family="none" font-weight="none" font-size="none" text-anchor="none" style="mix-blend-mode: normal"><g transform="scale(3.55556,3.55556)"><path d="M36,12c-13.255,0 -24,10.745 -24,24c0,13.255 10.745,24 24,24c13.255,0 24,-10.745 24,-24c0,-13.255 -10.745,-24 -24,-24zM36,20c8.837,0 16,7.163 16,16c0,7.93478 -5.78094,14.50175 -13.35742,15.76367v-9.48828h4.67578l0.70117,-5.57617h-5.37695v-3.9043c0,-1.547 1.04525,-2.3418 2.15625,-2.3418c1.111,0 3.4082,-0.03125 3.4082,-0.03125v-4.98828c0,0 -2.04577,-0.23828 -4.13477,-0.23828c-1.755,0 -3.68833,0.49489 -5.23633,2.08789c-1.575,1.619 -1.80078,4.01169 -1.80078,6.92969v2.48633h-4.6875v5.57813h4.6875v9.4375c-7.41851,-1.39157 -13.03516,-7.89214 -13.03516,-15.71484c0,-8.837 7.163,-16 16,-16z"></path></g></g></svg>